<svg version="1.1" viewBox="0.0 0.0 9600.0 7200.0" fill="none" stroke="none"
     stroke-linecap="square" stroke-miterlimit="10" xmlns="http://www.w3.org/2000/svg">
    <clipPath id="p.0">
        <path d="m0 0l9600.0 0l0 7200.0l-9600.0 0l0 -7200.0z" clip-rule="nonzero"/>
    </clipPath>
    <g clip-path="url(#p.0)">
        <path fill="#000000" fill-opacity="0.0" d="m0 0l9600.0 0l0 7200.0l-9600.0 0z" fill-rule="evenodd"/>
        <path fill="var(--logo-secondary, #121314)" d="m-0.0131233595 0l9600.0 0l0 7200.0l-9600.0 0z"
              fill-rule="evenodd"/>
        <path stroke="var(--logo-secondary, #121314)" stroke-width="10.0" stroke-linejoin="round" stroke-linecap="butt"
              d="m-0.0131233595 0l9600.0 0l0 7200.0l-9600.0 0z" fill-rule="evenodd"/>
        <path fill="currentColor"
              d="m5732.75 1019.8078l1823.8599 1052.4404l0 2106.244l-1823.8599 1052.4404l-1823.8599 -1052.4404l0 -2106.244z"
              fill-rule="evenodd"/>
        <path fill="var(--logo-secondary, #121314)"
              d="m5732.72 1347.3993l1539.9805 888.631l0 1778.6802l-1539.9805 888.63086l-1539.981 -888.63086l0 -1778.6802z"
              fill-rule="evenodd"/>
        <path fill="#000000" fill-opacity="0.0" d="m7387.218 2169.8162l-1308.021 755.3364" fill-rule="evenodd"/>
        <path stroke="currentColor" stroke-width="255.249343832021" stroke-linejoin="round" stroke-linecap="butt"
              d="m7387.218 2169.8162l-1308.021 755.3364" fill-rule="evenodd"/>
        <path fill="currentColor"
              d="m2043.9504 4020.4116c0 -1127.2861 913.8462 -2041.1323 2041.1323 -2041.1323c541.34204 0 1060.512 215.04736 1443.2986 597.834c382.78662 382.78638 597.834 901.95654 597.834 1443.2983c0 1127.2866 -913.8462 2041.1323 -2041.1326 2041.1323c-1127.2861 0 -2041.1323 -913.8457 -2041.1323 -2041.1323zm299.47485 0c0 961.8911 779.7666 1741.6577 1741.6575 1741.6577c961.89087 0 1741.6575 -779.7666 1741.6575 -1741.6577c0 -961.8906 -779.7666 -1741.6572 -1741.6575 -1741.6572c-961.89087 0 -1741.6575 779.7666 -1741.6575 1741.6572z"
              fill-rule="evenodd"/>
        <path fill="var(--logo-secondary, #121314)"
              d="m2225.987 4020.5503c0 -1026.825 832.40625 -1859.2312 1859.2312 -1859.2312c493.09863 0 966.00146 195.88281 1314.6748 544.55615c348.67383 348.67358 544.55615 821.5764 544.55615 1314.675c0 1026.8252 -832.40576 1859.231 -1859.231 1859.231c-1026.825 0 -1859.2312 -832.40576 -1859.2312 -1859.231zm272.78638 0c0 876.16943 710.27563 1586.4448 1586.4448 1586.4448c876.16943 0 1586.4448 -710.2754 1586.4448 -1586.4448c0 -876.1692 -710.2754 -1586.4448 -1586.4448 -1586.4448c-876.1692 0 -1586.4448 710.27563 -1586.4448 1586.4448z"
              fill-rule="evenodd"/>
        <path fill="var(--logo-secondary, #121314)" d="m3886.5618 2443.812l324.72437 0l0 -57.007812l-324.72437 0z"
              fill-rule="evenodd"/>
        <path fill="var(--logo-secondary, #121314)"
              d="m5362.7812 5102.887l210.7085 -364.40967l-108.34619 -62.677246l-210.70898 364.40967z"
              fill-rule="evenodd"/>
    </g>
</svg>